# xmcd
#
# Track frame offsets: 
#        150
#        24702
#        45547
#        64185
#        86077
#        109297
#        130760
#        150345
#        168405
#        187075
#        202010
#
# Disc length: 2921 seconds
#
# Revision: 0
# Processed by: cddbd v1.5.2PL0 Copyright (c) Steve Scherf et al.
# Submitted via: ExactAudioCopy v0.95a5
#
DISCID=960b670b
DTITLE=温兆伦 - 我得到什么
DYEAR=1994
DGENRE=Pop
TTITLE0=我得到什么(TVB第三类法庭主题曲)
TTITLE1=青蛙公主(TVB第三类法庭主题曲)
TTITLE2=情越远越深
TTITLE3=天生一对
TTITLE4=昨日情深(TVB第三类法庭插曲)
TTITLE5=冷落
TTITLE6=愿做你的太阳
TTITLE7=其实我忘不了你
TTITLE8=痴情梦里
TTITLE9=和你擦过火花
TTITLE10=燃亮我明天
EXTD=
EXTT0=
EXTT1=
EXTT2=
EXTT3=
EXTT4=
EXTT5=
EXTT6=
EXTT7=
EXTT8=
EXTT9=
EXTT10=
PLAYORDER=
